# xmcd
#
# Track frame offsets: 
#        150
#        15035
#        32113
#        45912
#        72271
#        85835
#        98597
#        116811
#        131124
#        145216
#        161804
#        176322
#        196213
#
# Disc length: 2736 seconds
#
# Revision: 0
# Processed by: cddbd v1.5.2PL0 Copyright (c) Steve Scherf et al.
# Submitted via: ExactAudioCopyFreeDBPlugin 1.0
#
DISCID=a10aae0d
DTITLE=Spedding, Chris - Pearls
DYEAR=2014
DGENRE=
TTITLE0=Not Luv
TTITLE1=Rhumba
TTITLE2=Louisiana Blues
TTITLE3=Pearls
TTITLE4=Cherry
TTITLE5=Air Guitar Woogie
TTITLE6=The Train and the River
TTITLE7=TEmple Heath
TTITLE8=Drippin's
TTITLE9=Don't That Pretty
TTITLE10=Abuse
TTITLE11=Pearls (Reprise)
TTITLE12=Flat Top Floogie
EXTD=
EXTT0=
EXTT1=
EXTT2=
EXTT3=
EXTT4=
EXTT5=
EXTT6=
EXTT7=
EXTT8=
EXTT9=
EXTT10=
EXTT11=
EXTT12=
PLAYORDER=
